<svg width="196" height="30" viewBox="0 0 196 30" fill="none" xmlns="http://www.w3.org/2000/svg">
<path d="M44.458 18.3252L44.6514 19.3242L44.9092 18.2715L47.7021 9.37695H48.7979L51.5586 18.1963L51.8594 19.4209L52.1064 18.293L54.4912 9.37695H55.8232L52.4395 21H51.3438L48.3574 11.7832L48.2178 11.1494L48.0781 11.7939L45.1455 21H44.0498L40.6768 9.37695H41.998L44.458 18.3252Z" fill="#00535E"/>
<path d="M57.3327 15.0166C57.3327 13.8994 57.5476 12.8932 57.9773 11.998C58.4141 11.1029 59.0264 10.4082 59.8142 9.91406C60.6091 9.41276 61.5079 9.16211 62.5105 9.16211C64.0573 9.16211 65.3106 9.70638 66.2702 10.7949C67.2299 11.8763 67.7097 13.3122 67.7097 15.1025V15.3711C67.7097 16.4954 67.4913 17.5088 67.0544 18.4111C66.6247 19.3063 66.016 19.9974 65.2282 20.4844C64.4405 20.9714 63.5417 21.2148 62.532 21.2148C60.9922 21.2148 59.739 20.6742 58.7722 19.5928C57.8126 18.5042 57.3327 17.0648 57.3327 15.2744V15.0166ZM58.6218 15.3711C58.6218 16.7604 58.9799 17.9027 59.696 18.7979C60.4193 19.6859 61.3646 20.1299 62.532 20.1299C63.6921 20.1299 64.6303 19.6859 65.3464 18.7979C66.0697 17.9027 66.4314 16.7246 66.4314 15.2637V15.0166C66.4314 14.1286 66.2667 13.3158 65.9372 12.5781C65.6078 11.8405 65.1459 11.2712 64.5515 10.8701C63.9571 10.4619 63.2767 10.2578 62.5105 10.2578C61.3646 10.2578 60.4301 10.709 59.7068 11.6113C58.9835 12.5065 58.6218 13.681 58.6218 15.1348V15.3711Z" fill="#00535E"/>
<path d="M75.5248 10.4727C75.2527 10.4225 74.9627 10.3975 74.6547 10.3975C73.8526 10.3975 73.1723 10.623 72.6137 11.0742C72.0623 11.5182 71.6684 12.1663 71.4321 13.0186V21H70.1537V9.37695H71.4106L71.4321 11.2246C72.1124 9.84961 73.2045 9.16211 74.7084 9.16211C75.0665 9.16211 75.3494 9.20866 75.5571 9.30176L75.5248 10.4727Z" fill="#00535E"/>
<path d="M78.7853 21H77.4963V4.5H78.7853V21Z" fill="#00535E"/>
<path d="M84.8495 18.3252L85.0429 19.3242L85.3007 18.2715L88.0936 9.37695H89.1893L91.9501 18.1963L92.2509 19.4209L92.4979 18.293L94.8827 9.37695H96.2147L92.8309 21H91.7352L88.7489 11.7832L88.6093 11.1494L88.4696 11.7939L85.537 21H84.4413L81.0682 9.37695H82.3895L84.8495 18.3252Z" fill="#00535E"/>
<path d="M99.8727 21H98.5836V9.37695H99.8727V21ZM98.358 6.01465C98.358 5.77116 98.4368 5.56706 98.5943 5.40234C98.7519 5.23047 98.9667 5.14453 99.2389 5.14453C99.511 5.14453 99.7258 5.23047 99.8834 5.40234C100.048 5.56706 100.13 5.77116 100.13 6.01465C100.13 6.25814 100.048 6.46224 99.8834 6.62695C99.7258 6.79167 99.511 6.87402 99.2389 6.87402C98.9667 6.87402 98.7519 6.79167 98.5943 6.62695C98.4368 6.46224 98.358 6.25814 98.358 6.01465Z" fill="#00535E"/>
<path d="M102.639 15.0811C102.639 13.2764 103.04 11.8405 103.842 10.7734C104.651 9.69922 105.747 9.16211 107.129 9.16211C108.698 9.16211 109.894 9.78158 110.717 11.0205V4.5H111.995V21H110.792L110.739 19.4531C109.915 20.6276 108.705 21.2148 107.108 21.2148C105.769 21.2148 104.687 20.6777 103.864 19.6035C103.047 18.5221 102.639 17.0648 102.639 15.2314V15.0811ZM103.939 15.3066C103.939 16.7891 104.236 17.96 104.83 18.8193C105.425 19.6715 106.263 20.0977 107.344 20.0977C108.927 20.0977 110.051 19.3994 110.717 18.0029V12.5459C110.051 11.0348 108.934 10.2793 107.366 10.2793C106.284 10.2793 105.443 10.7054 104.841 11.5576C104.24 12.4027 103.939 13.6523 103.939 15.3066Z" fill="#00535E"/>
<path d="M119.66 21.2148C118.672 21.2148 117.777 20.9714 116.975 20.4844C116.18 19.9974 115.56 19.3206 115.116 18.4541C114.672 17.5804 114.45 16.6029 114.45 15.5215V15.0596C114.45 13.9424 114.665 12.9362 115.095 12.041C115.532 11.1458 116.137 10.444 116.91 9.93555C117.684 9.41992 118.522 9.16211 119.424 9.16211C120.835 9.16211 121.952 9.64551 122.775 10.6123C123.606 11.5719 124.022 12.8861 124.022 14.5547V15.2744H115.729V15.5215C115.729 16.8392 116.105 17.9385 116.856 18.8193C117.616 19.693 118.568 20.1299 119.714 20.1299C120.401 20.1299 121.007 20.0046 121.529 19.7539C122.059 19.5033 122.539 19.1022 122.969 18.5508L123.774 19.1631C122.829 20.5309 121.458 21.2148 119.66 21.2148ZM119.424 10.2578C118.457 10.2578 117.641 10.6123 116.975 11.3213C116.316 12.0303 115.915 12.9827 115.772 14.1787H122.743V14.0391C122.707 12.9219 122.389 12.0124 121.787 11.3105C121.186 10.6087 120.398 10.2578 119.424 10.2578Z" fill="#00535E"/>
<path d="M129.097 21H125.982V9.37695H129.097V21ZM125.8 6.36914C125.8 5.90365 125.954 5.52051 126.261 5.21973C126.577 4.91895 127.003 4.76855 127.54 4.76855C128.07 4.76855 128.492 4.91895 128.807 5.21973C129.122 5.52051 129.28 5.90365 129.28 6.36914C129.28 6.8418 129.119 7.22852 128.797 7.5293C128.482 7.83008 128.063 7.98047 127.54 7.98047C127.017 7.98047 126.594 7.83008 126.272 7.5293C125.957 7.22852 125.8 6.8418 125.8 6.36914Z" fill="#00535E"/>
<path d="M134.356 9.37695L134.453 10.6768C135.276 9.66699 136.39 9.16211 137.793 9.16211C139.29 9.16211 140.318 9.75293 140.876 10.9346C141.693 9.75293 142.857 9.16211 144.368 9.16211C145.628 9.16211 146.566 9.53092 147.182 10.2686C147.798 10.999 148.106 12.1019 148.106 13.5771V21H144.991V13.5879C144.991 12.929 144.862 12.4492 144.604 12.1484C144.346 11.8405 143.891 11.6865 143.24 11.6865C142.309 11.6865 141.664 12.1305 141.306 13.0186L141.317 21H138.212V13.5986C138.212 12.9255 138.08 12.4385 137.815 12.1377C137.55 11.8369 137.099 11.6865 136.461 11.6865C135.581 11.6865 134.943 12.0518 134.549 12.7822V21H131.445V9.37695H134.356Z" fill="#00535E"/>
<path d="M157.017 21C156.874 20.7207 156.77 20.3734 156.705 19.958C155.953 20.7959 154.976 21.2148 153.773 21.2148C152.634 21.2148 151.689 20.8854 150.937 20.2266C150.192 19.5677 149.82 18.737 149.82 17.7344C149.82 16.5026 150.274 15.5573 151.184 14.8984C152.1 14.2396 153.422 13.9066 155.148 13.8994H156.576V13.2334C156.576 12.6963 156.437 12.2666 156.157 11.9443C155.885 11.6221 155.452 11.4609 154.858 11.4609C154.335 11.4609 153.923 11.5863 153.622 11.8369C153.329 12.0876 153.182 12.4313 153.182 12.8682H150.077C150.077 12.195 150.285 11.5719 150.7 10.999C151.116 10.4261 151.703 9.97852 152.462 9.65625C153.221 9.32682 154.073 9.16211 155.019 9.16211C156.451 9.16211 157.586 9.52376 158.424 10.2471C159.269 10.9632 159.692 11.973 159.692 13.2764V18.3145C159.699 19.4173 159.853 20.2516 160.154 20.8174V21H157.017ZM154.449 18.8408C154.908 18.8408 155.33 18.7406 155.717 18.54C156.104 18.3324 156.39 18.0566 156.576 17.7129V15.7148H155.416C153.862 15.7148 153.035 16.252 152.935 17.3262L152.924 17.5088C152.924 17.8955 153.06 18.2142 153.332 18.4648C153.604 18.7155 153.977 18.8408 154.449 18.8408Z" fill="#00535E"/>
<path d="M161.405 15.1025C161.405 13.3193 161.828 11.8835 162.673 10.7949C163.525 9.70638 164.671 9.16211 166.11 9.16211C167.385 9.16211 168.377 9.59896 169.086 10.4727L169.215 9.37695H172.029V20.6133C172.029 21.6302 171.796 22.5146 171.331 23.2666C170.873 24.0186 170.225 24.5915 169.387 24.9854C168.549 25.3792 167.568 25.5762 166.443 25.5762C165.591 25.5762 164.76 25.4043 163.951 25.0605C163.142 24.724 162.53 24.2871 162.114 23.75L163.489 21.8594C164.263 22.7259 165.201 23.1592 166.304 23.1592C167.127 23.1592 167.768 22.9372 168.226 22.4932C168.685 22.0563 168.914 21.4333 168.914 20.624V20.001C168.198 20.8102 167.256 21.2148 166.089 21.2148C164.692 21.2148 163.561 20.6706 162.694 19.582C161.835 18.4863 161.405 17.0361 161.405 15.2314V15.1025ZM164.51 15.3281C164.51 16.3809 164.721 17.208 165.143 17.8096C165.566 18.404 166.146 18.7012 166.884 18.7012C167.829 18.7012 168.506 18.3467 168.914 17.6377V12.75C168.499 12.041 167.829 11.6865 166.905 11.6865C166.16 11.6865 165.573 11.9909 165.143 12.5996C164.721 13.2083 164.51 14.1178 164.51 15.3281Z" fill="#00535E"/>
<path d="M179.554 21.2148C177.85 21.2148 176.461 20.6921 175.386 19.6465C174.319 18.6009 173.786 17.208 173.786 15.4678V15.167C173.786 13.9997 174.011 12.9577 174.463 12.041C174.914 11.1172 175.551 10.4082 176.375 9.91406C177.205 9.41276 178.151 9.16211 179.211 9.16211C180.8 9.16211 182.05 9.66341 182.96 10.666C183.876 11.6686 184.335 13.0902 184.335 14.9307V16.1982H176.933C177.034 16.9574 177.334 17.5661 177.836 18.0244C178.344 18.4827 178.985 18.7119 179.758 18.7119C180.954 18.7119 181.889 18.2786 182.562 17.4121L184.088 19.1201C183.622 19.779 182.992 20.2946 182.197 20.667C181.402 21.0322 180.521 21.2148 179.554 21.2148ZM179.2 11.6758C178.584 11.6758 178.083 11.8835 177.696 12.2988C177.316 12.7142 177.073 13.3086 176.965 14.082H181.284V13.835C181.27 13.1475 181.083 12.6175 180.725 12.2451C180.367 11.8656 179.859 11.6758 179.2 11.6758Z" fill="#00535E"/>
<path d="M192.182 17.7881C192.182 17.4085 191.992 17.1113 191.613 16.8965C191.24 16.6745 190.639 16.4775 189.808 16.3057C187.044 15.7256 185.661 14.5511 185.661 12.7822C185.661 11.751 186.088 10.8916 186.94 10.2041C187.799 9.50944 188.92 9.16211 190.302 9.16211C191.777 9.16211 192.955 9.50944 193.836 10.2041C194.724 10.8988 195.168 11.8011 195.168 12.9111H192.064C192.064 12.4671 191.921 12.1019 191.634 11.8154C191.348 11.5218 190.9 11.375 190.291 11.375C189.769 11.375 189.364 11.4932 189.077 11.7295C188.791 11.9658 188.648 12.2666 188.648 12.6318C188.648 12.9756 188.809 13.2549 189.131 13.4697C189.461 13.6774 190.012 13.86 190.786 14.0176C191.559 14.168 192.211 14.3398 192.741 14.5332C194.381 15.1348 195.201 16.1768 195.201 17.6592C195.201 18.7191 194.746 19.5785 193.836 20.2373C192.927 20.889 191.752 21.2148 190.313 21.2148C189.339 21.2148 188.472 21.043 187.713 20.6992C186.961 20.3483 186.37 19.8721 185.941 19.2705C185.511 18.6618 185.296 18.0065 185.296 17.3047H188.24C188.268 17.8561 188.472 18.2786 188.852 18.5723C189.231 18.8659 189.74 19.0127 190.377 19.0127C190.972 19.0127 191.419 18.9017 191.72 18.6797C192.028 18.4505 192.182 18.1533 192.182 17.7881Z" fill="#00535E"/>
<path d="M8.47827 19.5652C8.47827 14.1624 12.8581 9.78262 18.2609 9.78262V9.78262C23.6637 9.78262 28.0435 14.1624 28.0435 19.5652V20.2174C28.0435 25.6202 23.6637 30 18.2609 30V30C12.8581 30 8.47827 25.6202 8.47827 20.2174V19.5652Z" fill="#FF9F03"/>
<path d="M0 16.3043C0 10.9016 4.37982 6.52173 9.78261 6.52173V6.52173C15.1854 6.52173 19.5652 10.9016 19.5652 16.3043V16.3043C19.5652 21.7071 15.1854 26.0869 9.78261 26.0869V26.0869C4.37982 26.0869 0 21.7071 0 16.3043V16.3043Z" fill="#00B19D"/>
<path d="M8.47827 9.78261C8.47827 4.37982 12.8581 0 18.2609 0V0C23.6637 0 28.0435 4.37982 28.0435 9.78261V10.4348C28.0435 15.8376 23.6637 20.2174 18.2609 20.2174V20.2174C12.8581 20.2174 8.47827 15.8376 8.47827 10.4348V9.78261Z" fill="#00535E"/>
<path d="M8.47827 19.5652C8.47827 14.1624 12.8581 9.78262 18.2609 9.78262C23.6637 9.78262 28.0435 14.1624 28.0435 19.5652V20.2174C28.0435 25.6202 23.6637 30 18.2609 30C12.8581 30 8.47827 25.6202 8.47827 20.2174V19.5652Z" fill="#FF9F03"/>
</svg>
